<svg height="512" viewBox="0 0 64 64" width="512" xmlns="http://www.w3.org/2000/svg"><path d="m32 39-4.63 2.57-24.37 13.49v1.94a4 4 0 0 0 4 4h50a4 4 0 0 0 4-4v-2l-24.36-13.44z" fill="#9bc9ff"/><path d="m55 29.08 6-4.08-6-4z" fill="#9bc9ff"/><path d="m24.09 9h15.82l-7.91-6z" fill="#9bc9ff"/><path d="m9 29.03v-8.03l-5.96 3.97z" fill="#9bc9ff"/><g fill="#57a4ff"><path d="m61.555 24.168-5.555-3.703v-11.465a1 1 0 0 0 -1-1h-14.753l-7.647-5.8a1 1 0 0 0 -1.208 0l-7.639 5.8h-14.753a1 1 0 0 0 -1 1v11.465l-5.555 3.7a1 1 0 0 0 -.445.835v32a5.006 5.006 0 0 0 5 5h50a5.006 5.006 0 0 0 5-5v-32a1 1 0 0 0 -.445-.832zm-1.555 2.721v26.417l-21.451-11.835zm-.791-1.881-3.209 2.182v-4.322zm-27.209-20.753 4.937 3.745h-9.874zm22 5.745v18.549l-17.414 11.839-4.1-2.263a1 1 0 0 0 -.967 0l-4.1 2.268-17.419-11.887v-18.506zm-28.539 31.478-21.461 11.886v-26.531zm-17.461-14.337-3.167-2.161 3.167-2.112zm49 32.859h-50a3 3 0 0 1 -3-3v-1.35l28-15.507 28 15.447v1.41a3 3 0 0 1 -3 3z"/><path d="m22 56h28v2h-28z"/><path d="m16 56h4v2h-4z"/><path d="m26 52h20v2h-20z"/><path d="m20 52h4v2h-4z"/><path d="m14 14h4v2h-4z"/><path d="m20 14h30v2h-30z"/><path d="m14 19h36v2h-36z"/><path d="m14 24h16v2h-16z"/><path d="m34 24h16v2h-16z"/><path d="m16 29h14v2h-14z"/><path d="m34 29h14v2h-14z"/></g></svg>