<svg height="480pt" viewBox="-112 0 480 480" width="480pt" xmlns="http://www.w3.org/2000/svg"><path d="m248 23.039062v32.960938h-240v-32.960938c-.003906-3.988281 1.578125-7.816406 4.402344-10.636718 2.820312-2.824219 6.648437-4.40625 10.636718-4.402344h209.921876c3.988281-.003906 7.816406 1.578125 10.636718 4.402344 2.824219 2.820312 4.40625 6.648437 4.402344 10.636718zm0 0" fill="#9bc9ff"/><path d="m248 424v32.960938c.003906 3.988281-1.578125 7.816406-4.402344 10.636718-2.820312 2.824219-6.648437 4.40625-10.636718 4.402344h-209.921876c-3.988281.003906-7.816406-1.578125-10.636718-4.402344-2.824219-2.820312-4.40625-6.648437-4.402344-10.636718v-32.960938zm0 0" fill="#9bc9ff"/><g fill="#57a4ff"><path d="m232.96875 0h-209.9375c-12.714844.0117188-23.0195312 10.316406-23.03125 23.03125v433.9375c.0117188 12.714844 10.316406 23.019531 23.03125 23.03125h209.9375c12.714844-.011719 23.019531-10.316406 23.03125-23.03125v-433.9375c-.011719-12.714844-10.316406-23.0195312-23.03125-23.03125zm-209.9375 16h209.9375c3.878906.007812 7.023438 3.152344 7.03125 7.03125v24.96875h-224v-24.96875c.007812-3.878906 3.152344-7.023438 7.03125-7.03125zm216.96875 48v352h-224v-352zm-7.03125 400h-209.9375c-3.878906-.007812-7.023438-3.152344-7.03125-7.03125v-24.96875h224v24.96875c-.007812 3.878906-3.152344 7.023438-7.03125 7.03125zm0 0"/><path d="m104 24h48v16h-48zm0 0"/><path d="m216 24h16v16h-16zm0 0"/><path d="m112 440h32v16h-32zm0 0"/></g></svg>